P1
# Created by GIMP version 2.10.12 PNM plug-in
96 96
0000000000000000000000000000000000000000000000000000000000000000000000
0000000000000000000000000000000000000000000000000000000000000000000000
0000000000000000000000000000000000000000000000000000000000000000000000
0000000000000000000000000000000000000000000000000000000000000000000000
0000000000000000000000000000000000000000000000000000000000000000000000
0000000000000000000000000000000000000000000000000000000000000000000000
0000000000000000000000000000000000000000000000000000000000000000011000
0111111110000111111111111110000111111110000111111111111111111111111111
1111100001100000000001100001111111100001111111111111100001111111100001
1111111111111111111111111111111000011000000000011000011100011000000000
0111000110000000000110000111000000000000000000000111000110000110000000
0001100001100001100000000001100001100000000001100001100000000000000000
0000011000011000011000000000011000011000011000000000011000011000000000
0110000110000000000000000000000110000110000110000000000110001110000110
0000000011100001100000000001100001100000000000000000000011100001100011
1000000000011111111000011000011111111000011111111000011000011000011111
1110000111111110000111111110000000000111111110000110000111111110000111
1111100001100001100001111111100001111111100001111111100000000000000000
0000011000011000000000000000011000011000011000000000011000011000000000
0000000110000000000000000000000110000110000000000000000110000110000110
0000000001100001100000000000000001100000000000000000000001100001100000
0000000000011000011000011000000000011000011000000000000000011000000000
0000000000001110000110000000000000001110000110001110000000001110000110
0000000000000011100000000001111111111111100001100001111111111111100001
1111111111111111111000011111111000011111111000000000011111111111111000
0110000111111111111110000111111111111111111110000111111110000111111110
0000000001110000000000000001100001110000000000000001100000000000000000
0000000000011000011000000000000000011000000000000000011000011000000000
0000000110000000000000000000000000000110000110000000000000000110000000
0000000001100001100000000000000001100000000000000000000000000001100001
1000000000000000011000000000000000111000011000000000000000111000000000
0000000000000000001110000110000000000000000111111110000111111110000110
0001111111111111100001111111111111111111111111100001111111100000000001
1111111000011111111000011000011111111111111000011111111111111111111111
1110000111111110000000000000000110000110000000000110000000000000000000
0001110000000000000000000000000000000001100000000000000001100001100000
0000011000000000000000000000011000000000000000000000000000000000011000
0000000000000110000110000000000110000000000000000000000110000000000000
0000000000000000000001100000000000000011100001100000000001100000000000
0000000000011000000000000000000000000000000000011000000000011111111000
0110000110000111111111111111111110000111111111111110000111111111111110
0001100000000001111111100001100001100001111111111111111111100001111111
1111111000011111111111111000011000000000011000000000011000011000000000
0000000000000110000111000000000110000111000000000110000110000000000110
0000000001100001100000000000000000000001100001100000000001100001100000
0000011000011000000000011000000000011000011000000000000000000000011000
0110000000000110000110000000000110000110000000000110000000001110000110
0000000000000000000001100001100000000001100001100000000011100001100000
0000011000011111111000011111111111111000011000011000011111111000011000
0110000111111110000110000000000110000111111110000111111111111110000110
0001100001111111100001100001100001111111100001100000000001100000000001
1000011100011100011000011000011000000000000000011000011000000000011000
0110000000000110000000000110000110000110000110000110000110000000000000
0001100001100000000001100001100000000001100000000001100001100001100001
1000011000011000000000000000011000011000000000011000011000000000011000
0000001110000110000110000110001110000110000000000000001110000110000000
0001100001100000000001100001111111100001100001100001111111100001111111
1111111111111000011111111000011000011000000000011000011111111000011000
0110000111111110000111111111111111111110000111111110000110000110000000
0001100001100000000001100001100000000001100000000000000000000000000001
1100011000000000011000000000011000011000000000011000011000000000011000
0000000000000000000000000110000110000000000110000000000110000110000000
0001100001100000000001100000000000000000000000000001100001100000000001
1000000000011000011000000000011000011000000000011000000000000000000000
0000000110000110000000001110000000000110000111111110000110000110000110
0001100001111111100001111111100001100001111111111111100000000001100001
1111111000011000011000011000011000011111111000011111111000011000011111
1111111110000000000110000000000110000000000110000110000110000111000110
0001110001100001100000000000000000000000000001100000000001100000000001
1000011000011000011000011000011000011000011000000000000000000000000000
0110000000000110000000000110000110000110000110000110000110000110000110
0000000000000000000000000001100000000011100000000011100001100001100011
1000011000011000011000111000000000000000000000000000011111111111111000
0111111110000110000111111110000110000110000111111110000111111111111110
0000000001111111111111100001111111100001100001111111100001100001100001
1111111000011111111111111000000000000000000000000000011000000000011000
0000000110000000000110000000000000000000000111000110000000000000000000
0000000001100000000001100000000001100000000001100000000000000000000001
1000011000000000000000000000000000011000000000011000000000011000000000
0110000000000000000000000110000110000000000000000000000000001110000000
0011100000000001100000000011100000000000000000000011100001100000000001
1000011111111111111000011111111111111000011000011111111000011111111111
1111111110000110000000000110000111111111111110000111111111111110000110
0001111111100001111111111111111111100001100000000001100001110001100000
0000011000000000000000011000011000000000011100000000000000000000011000
0000000110000110000110000000000110000000000000000110000110000000000110
0000000000000000000001100000000001100001100001100000000001100000000000
0000011000011000000000011000000000000000000000011000000000011000011000
0110000000000110000000000000000110000110000000001110000000000000000000
0011100000000001100001100001100001100001111111111111100001100001111111
1111111000011000011111111111111000000000011000011000011000011000011111
1111111110000110000111111111111110000110000111111111111110000000000110
0001100001100001100001110000000001100001100000000000000000000001100001
1100000000000000000000011000011000011000011000011000000000011000011000
0000000000000000000110000110000000000000000000000110000110000110000110
0001100000000001100001100000000000000000000001100001100000000000000000
0000011000111000011000011000111000000000011000111000000000000000000000
1110000110000000000000000000000111111110000110000111111111111110000111
1111100001111111111111111111100001100001111111100000000001111111100001
1000011111111111111000011111111000011111111111111111111000011000011111
1110000000000110000000000110000110000000000000000000000000000111000000
0000000001100001100001110001100000000001100000000001100001100000000000
0000000000000000011000000000000000011000011000011000011000000000011000
0000000110000110000000000000000000000000000110000000000000000110000110
0001100001100000000001100000000001100001100000000000000000000000000001
1000000000000000011000011000011000011000000000011111111000011000011000
0111111111111111111110000110000111111110000110000110000110000110000000
0001111111100001100001100001111111111111111111100001100001111111100001
1000011000011000011000000000000000011000011000011000011100000000000000
0110000110000111000000000110000110000110000110000000000000000110000110
0001100001100000000000000001100001100001100000000001100001100001100001
1000000000000000011000011000011000011000000000000000011000011000011000
0000000110000110000110000110000000000000000110000110000110000110000000
0000000001100001100001100000000001100011100001100001100000000001100001
1000011000011000011000011111111000011000011000011111111000011111111000
0110000110000000000110000110000110000110000110000111111110000110000110
0001111111100001111111100001100001100000000001100001100001100000000001
1000000000011000011000011000000000011000000000000000000000011000000000
0110000110000110000000000110000000000110000110000110000000000110000000
0000000000000001100000000001100001100001100000000001100000000001100001
1000011000000000011000000000000000000000011000000000011000111000011000
0000001110000000001110000110001110000000001110000000000000000000001110
0000000001111111100001111111111111111111111111100001111111111111111111
1111111111111111111111111000000000011111111000011111111111111111111111
1110000111111111111111111111111111111111111111111110000000000000000000
0000000000000000000000000000000000000000000000000000000000000000000000
0000000000000000000000000000000000000000000000000000000000000000000000
0000000000000000000000000000000000000000000000000000000000000000000000
0000000000000000000000000000000000000000000000000000000000000000000000
0000000000000000000000000000000000000000000000000000000000000000000000
0000000000000000000000000000000000000000000000000000000000000000000000
0000000000000000000000000000000000000000000000